<svg width="22" height="29" viewBox="0 0 22 29" fill="none" xmlns="http://www.w3.org/2000/svg">
<path d="M14.8159 28.6395C14.7373 28.6834 14.5964 28.6737 14.4793 28.6656C14.4378 28.6628 14.3993 28.6601 14.3676 28.6601C14.2437 28.6601 14.1188 28.6578 13.9936 28.6555C13.732 28.6506 13.4692 28.6457 13.2109 28.6619M14.8159 28.6395L14.5724 28.2028L14.5726 28.2027M14.8159 28.6395C14.961 28.5587 15.0935 28.3729 15.2092 28.2108C15.2541 28.1479 15.2965 28.0885 15.336 28.0402C15.4394 27.9141 15.5433 27.7882 15.6472 27.6623C15.9322 27.3168 16.2173 26.9712 16.4939 26.6203C16.612 26.4704 16.7303 26.3205 16.8486 26.1707C17.6807 25.1168 18.5125 24.0632 19.3002 22.9806M14.8159 28.6395L18.8958 22.6865M13.2109 28.6619L13.1797 28.1629C13.1796 28.1629 13.1796 28.1629 13.1795 28.1629M13.2109 28.6619L13.1795 28.1629M13.2109 28.6619C13.0622 28.6712 12.9136 28.6758 12.7653 28.6804C12.4767 28.6893 12.1888 28.6981 11.9014 28.7417M13.1795 28.1629C13.4582 28.1454 13.758 28.1509 14.0299 28.1559C14.1492 28.158 14.2632 28.1601 14.3676 28.1601C14.4166 28.1601 14.469 28.1637 14.5042 28.1662L14.5082 28.1664C14.5479 28.1692 14.5779 28.1712 14.6059 28.1721M13.1795 28.1629C13.0634 28.1702 12.9325 28.1743 12.7934 28.1788C12.4878 28.1885 12.1424 28.1995 11.8266 28.2473M14.6059 28.1721C14.6058 28.1722 14.6058 28.1722 14.6057 28.1723C14.5826 28.1958 14.571 28.2035 14.5711 28.2036C14.5711 28.2036 14.5716 28.2033 14.5726 28.2027M14.6059 28.1721C14.6325 28.145 14.6638 28.1079 14.701 28.0592C14.7342 28.0157 14.7662 27.9708 14.8021 27.9205L14.8165 27.9002C14.8551 27.8463 14.9019 27.7811 14.9493 27.7233L14.9494 27.7231C15.0549 27.5944 15.1601 27.467 15.2647 27.3402C15.5485 26.9961 15.8283 26.6569 16.1012 26.3108C16.2197 26.1604 16.3382 26.0103 16.4566 25.8604C17.2891 24.8058 18.1144 23.7605 18.8958 22.6865M14.6059 28.1721C14.6076 28.1722 14.6093 28.1722 14.6109 28.1723C14.6248 28.1727 14.6355 28.1726 14.6438 28.1724C14.6522 28.1721 14.6558 28.1717 14.6557 28.1717L14.6505 28.1726C14.6474 28.1732 14.6424 28.1742 14.6358 28.1761C14.6235 28.1796 14.6007 28.1871 14.5726 28.2027M14.5726 28.2027L18.8958 22.6865M18.8958 22.6865L19.3002 22.9806M18.8958 22.6865C18.8958 22.6865 18.8958 22.6865 18.8959 22.6864L19.3002 22.9806M18.8958 22.6865C18.9897 22.5574 19.0932 22.4459 19.1773 22.356L19.1952 22.3369C19.2766 22.2501 19.3389 22.1836 19.3942 22.1128L19.7882 22.4206M19.3002 22.9806C19.38 22.8708 19.4718 22.7729 19.5635 22.6751C19.641 22.5925 19.7184 22.51 19.7882 22.4206M19.7882 22.4206L19.3942 22.1128C19.4456 22.047 19.495 21.9624 19.5526 21.8503C19.5689 21.8184 19.5886 21.7786 19.61 21.7353C19.6315 21.6921 19.6546 21.6453 19.6778 21.5996M19.7882 22.4206C19.9001 22.2774 19.9846 22.1063 20.0672 21.939C20.104 21.8645 20.1404 21.7908 20.1786 21.7207M19.6778 21.5996C19.7446 21.5886 19.8096 21.5772 19.8719 21.5662C19.8778 21.5652 19.8836 21.5642 19.8895 21.5632L20.1786 21.7207M19.6778 21.5996C19.5416 21.6221 19.3983 21.6431 19.2563 21.6555M19.6778 21.5996C19.6988 21.5582 19.7199 21.5176 19.7397 21.4812M20.1786 21.7207C20.2167 21.6509 20.2589 21.5802 20.3016 21.5088C20.3037 21.5053 20.3057 21.5019 20.3078 21.4984C20.2037 21.5105 20.0934 21.528 19.9738 21.5485C19.9465 21.5532 19.9185 21.5581 19.8898 21.5631L20.1786 21.7207ZM19.2563 21.6555L19.7397 21.4812M19.2563 21.6555C17.9016 21.7736 16.2274 21.8219 14.8398 21.2777C14.6514 21.2038 14.4859 21.1053 14.346 21.0146C14.2836 20.9742 14.2222 20.9325 14.1661 20.8944L14.146 20.8808C14.0827 20.8379 14.0256 20.7995 13.9697 20.7642L13.9696 20.7641C13.1973 20.2762 12.179 19.5407 11.8642 18.4609L11.8642 18.4609C11.7398 18.0343 11.8603 17.5815 11.929 17.3295L11.929 17.3294C12.1024 16.6942 12.3602 16.0081 13.0019 15.4789L13.0019 15.4788C13.7923 14.8271 14.8173 14.697 15.6788 14.6625L19.2563 21.6555ZM19.2563 21.6555L19.2129 21.1574M19.2563 21.6555C19.2563 21.6555 19.2563 21.6555 19.2562 21.6555L19.2129 21.1574M19.7397 21.4812C19.7797 21.4078 19.8357 21.3138 19.8842 21.2323C19.9125 21.1847 19.9383 21.1414 19.9568 21.109C19.9711 21.084 19.9843 21.0603 19.9965 21.0377M19.7397 21.4812L19.9965 21.0377M19.9965 21.0377C19.9245 21.0494 19.8525 21.062 19.7805 21.0746C19.5906 21.1078 19.4009 21.141 19.2129 21.1574M19.9965 21.0377L14.4468 20.4807C14.6302 20.6051 14.8162 20.7313 15.0224 20.8122C16.292 21.3101 17.8623 21.2751 19.2129 21.1574M11.8266 28.2473L11.9014 28.7417M11.8266 28.2473C11.8265 28.2474 11.8264 28.2474 11.8264 28.2474L11.9014 28.7417M11.8266 28.2473L8.18163 25.6564M11.9014 28.7417C11.8063 28.7561 11.7032 28.7833 11.5979 28.8111C11.4116 28.8602 11.2183 28.9112 11.0502 28.8965C10.0798 28.8123 9.15136 27.9748 8.609 27.3002M8.609 27.3002L8.99875 26.987C8.99872 26.987 8.99869 26.987 8.99866 26.9869L8.609 27.3002ZM8.609 27.3002C8.25979 26.8657 7.86126 26.3273 7.7028 25.8004M7.7028 25.8004L8.18168 25.6566C8.18166 25.6565 8.18164 25.6564 8.18163 25.6564M7.7028 25.8004C7.66656 25.6797 7.66088 25.5571 7.65515 25.4335C7.6488 25.2966 7.64239 25.1585 7.59433 25.0204L5.29148 3.42589C5.25678 3.39302 5.23654 3.38678 5.22993 3.38496C5.22117 3.38255 5.20197 3.37919 5.16249 3.38564C5.06111 3.40222 4.94492 3.45689 4.74095 3.55491L4.74079 3.55499C4.68567 3.58145 4.63479 3.5995 4.59532 3.61225C4.57256 3.6196 4.53876 3.62965 4.51888 3.63556C4.51222 3.63754 4.50712 3.63906 4.50452 3.63985C4.49924 3.64146 4.49474 3.64289 4.49096 3.64413C4.48834 3.65139 4.48514 3.6629 4.48224 3.68032C4.47178 3.74318 4.47575 3.83198 4.49409 3.93189C4.57624 4.37841 4.80192 4.77922 5.07059 5.25638C5.13295 5.36713 5.19763 5.482 5.26337 5.6025C5.26338 5.60253 5.2634 5.60256 5.26341 5.60259L4.82447 5.84202M7.7028 25.8004L8.18163 25.6564M8.18163 25.6564C8.16466 25.5998 8.16058 25.537 8.15366 25.39L8.1535 25.3865C8.14749 25.2589 8.13823 25.062 8.06656 24.8561L8.06644 24.8558C7.57729 23.4533 7.16755 22.0372 6.86446 20.5979C6.77182 20.1574 6.70067 19.709 6.64158 19.2562L6.64152 19.2558C6.63497 19.206 6.63372 19.1563 6.63171 19.0762C6.63132 19.0609 6.63091 19.0445 6.63043 19.0267C6.6278 18.9303 6.62278 18.7944 6.59098 18.652C6.42568 17.9117 6.05323 17.2105 5.71823 16.6157L5.71822 16.6157C5.11446 15.5439 4.39106 14.5387 3.65882 13.564C3.47757 13.3227 3.29625 13.0839 3.11592 12.8464C2.56175 12.1166 2.01689 11.399 1.51173 10.6595C1.18364 10.1793 0.876246 9.70595 0.633755 9.21889C0.568124 9.08703 0.526837 8.98889 0.508869 8.90554C0.492957 8.83173 0.500936 8.79514 0.512814 8.76903C0.551697 8.68365 0.699104 8.5384 0.922327 8.46252C1.1414 8.38805 1.2765 8.42937 1.33634 8.48119C1.34144 8.48562 1.35344 8.49756 1.39094 8.55225C1.39452 8.55747 1.39866 8.56361 1.40333 8.57052C1.43587 8.61876 1.49394 8.70481 1.56482 8.78141L1.56499 8.78159C1.73096 8.96076 1.90344 9.13291 2.06949 9.29774C2.08347 9.31162 2.09741 9.32545 2.11129 9.33923C2.26444 9.49119 2.41136 9.63697 2.55279 9.78593C3.1723 10.4387 3.76653 11.0862 4.36397 11.7372C4.86382 12.2819 5.36593 12.8291 5.88698 13.3838C5.92821 13.4276 5.97058 13.4737 6.01435 13.5214C6.34719 13.8836 6.76133 14.3343 7.3755 14.5752L7.3756 14.5752C7.4869 14.6189 7.67109 14.6886 7.87115 14.7097C8.08031 14.7317 8.3645 14.7057 8.60656 14.4918C8.83543 14.2897 8.88638 14.024 8.8943 13.8474C8.90125 13.6924 8.87708 13.5367 8.8638 13.4512C8.86245 13.4425 8.86121 13.4345 8.86013 13.4274C8.86011 13.4272 8.86009 13.4271 8.86007 13.427L8.36564 13.5014M8.36564 13.5014C8.28358 12.9532 8.10854 12.4541 7.88548 11.9415C6.98191 9.86529 5.91487 7.84006 4.82447 5.84202M8.36564 13.5014C8.36683 13.5093 8.36806 13.5174 8.36931 13.5256C8.39823 13.7153 8.43764 13.9739 8.2755 14.1171L8.36564 13.5014ZM4.82447 5.84202C4.76782 5.73816 4.70911 5.63434 4.6502 5.53016C4.37779 5.04837 4.101 4.55887 4.00231 4.02218M4.82447 5.84202L4.00231 4.02218M4.00231 4.02218C3.95495 3.7642 3.94905 3.41223 4.19786 3.23444C4.25819 3.19126 4.32344 3.17194 4.38931 3.15242C4.43449 3.13904 4.47997 3.12557 4.52437 3.10425C4.53462 3.09933 4.54489 3.09438 4.55518 3.08942L4.00231 4.02218ZM18.3495 14.2088L18.3496 14.2088C18.6176 14.1288 18.8833 14.0276 19.1698 13.9184C19.2318 13.8948 19.2948 13.8708 19.359 13.8466C19.5799 13.7632 19.8124 13.6782 20.0527 13.6053C20.0525 13.5968 20.0524 13.5883 20.0523 13.5799C20.0516 13.5347 20.0513 13.4937 20.051 13.4555C20.0504 13.3599 20.0498 13.2818 20.0436 13.1986C19.9853 12.4175 20.027 11.6243 20.0663 10.8757C20.0737 10.7347 20.081 10.5953 20.0876 10.4578L20.0876 10.4577C20.2051 8.0004 20.3846 5.55099 20.5675 3.10497L20.5675 3.1049C20.5741 3.01644 20.5815 2.93728 20.5885 2.86328C20.6022 2.71705 20.6141 2.59094 20.614 2.45305C20.614 2.26343 20.5876 2.12412 20.5296 2.01204L20.5296 2.012C20.461 1.87925 20.2782 1.74036 20.0079 1.68956C19.7409 1.63936 19.4993 1.6971 19.3572 1.81422C19.3202 1.8447 19.3057 1.86959 19.2922 1.92479C19.2834 1.96075 19.2767 2.00557 19.2695 2.0726C19.2678 2.08832 19.2659 2.10719 19.2639 2.12806C19.2585 2.18168 19.2519 2.24847 19.2438 2.30861C19.2438 2.30868 19.2438 2.30875 19.2438 2.30881L18.7482 2.24232L18.3495 14.2088ZM18.3495 14.2088C18.1656 14.2638 18.027 14.2882 17.8711 14.3132M18.3495 14.2088L17.8711 14.3132M15.9783 12.5252L15.9782 12.5252C15.7205 12.4771 15.5147 12.3283 15.3766 12.2C15.2322 12.0661 15.1143 11.9105 15.0345 11.7744L15.0343 11.7741C14.8613 11.4783 14.8116 11.1334 14.7796 10.9114C14.7739 10.8715 14.7687 10.8356 14.7635 10.8046C14.7079 10.4751 14.6476 10.1448 14.5865 9.81201L14.5864 9.8117C14.4011 8.79885 14.2414 7.79966 14.0826 6.80669C13.8504 5.35409 13.6203 3.9148 13.3153 2.4655L15.9783 12.5252ZM15.9783 12.5252C16.3521 12.595 16.6365 12.3961 16.7884 12.2514C16.9479 12.0995 17.0607 11.9173 17.1242 11.8011L15.9783 12.5252ZM11.8269 0.574502L11.8265 0.574678C11.7199 0.630157 11.6319 0.689221 11.5634 0.751927C11.4049 0.897526 11.3468 1.08803 11.36 1.40008C11.3668 1.55993 11.3916 1.73025 11.4224 1.92387C11.4255 1.94286 11.4286 1.96219 11.4317 1.98181C11.4589 2.1513 11.4895 2.34237 11.5032 2.52498L11.5032 2.52501C11.5853 3.62302 11.6757 4.72096 11.7664 5.82101L11.7702 5.86658C11.8596 6.95088 11.9491 8.03726 12.0309 9.12426L12.0309 9.12433C12.0846 9.84009 12.1395 10.5788 12.1395 11.3216C12.1395 11.345 12.1403 11.3628 12.1416 11.3886C12.1427 11.4128 12.1442 11.444 12.1457 11.4936C12.148 11.5722 12.1487 11.6788 12.1343 11.7896C12.1083 11.9896 11.9986 12.3998 11.5436 12.5147C11.2172 12.5972 10.9422 12.4571 10.794 12.3628C10.6739 12.2863 10.5504 12.1797 10.4851 12.1234C10.4703 12.1106 10.4585 12.1005 10.4504 12.0938C9.91682 11.6546 9.55017 10.9836 9.27483 10.4798C9.2376 10.4117 9.20203 10.3466 9.16796 10.2855C8.80655 9.63866 8.43093 8.98512 8.05353 8.32845C7.54038 7.43561 7.02393 6.537 6.53537 5.64156L11.8269 0.574502ZM11.8269 0.574502C12.0349 0.466113 12.2541 0.479269 12.4775 0.593328C12.7122 0.713125 12.9189 0.932455 13.0316 1.16225M11.8269 0.574502L13.0316 1.16225M17.8711 14.3132C17.8573 14.3155 17.8434 14.3177 17.8292 14.3199M17.8711 14.3132L17.8292 14.3199M17.8292 14.3199C17.6796 14.3438 17.5052 14.3716 17.2863 14.4285L17.8292 14.3199ZM13.0316 1.16225C13.103 1.3082 13.1507 1.49415 13.1918 1.7279M13.0316 1.16225L13.1918 1.7279M13.1918 1.7279C13.2046 1.80058 13.2182 1.88856 13.2326 1.98208M13.1918 1.7279L13.2326 1.98208M13.2326 1.98208C13.2575 2.14338 13.2849 2.32115 13.3153 2.4653L13.2326 1.98208ZM4.49622 3.63341C4.49629 3.63354 4.49574 3.6346 4.49434 3.63617C4.49545 3.63407 4.49615 3.63328 4.49622 3.63341ZM5.5689 3.87961C5.60373 3.94974 5.6437 4.02958 5.68764 4.10755L5.29155 3.42596C5.34667 3.47824 5.40174 3.55732 5.46828 3.68132C5.49776 3.73627 5.52565 3.79246 5.55734 3.85633C5.56114 3.86398 5.56499 3.87173 5.5689 3.87961ZM5.68772 4.1077C5.97391 4.61585 6.25481 5.12742 6.53535 5.64154L5.68772 4.1077Z" fill="#102660" stroke="#102660"/>
</svg>
