<svg width="6" height="5" viewBox="0 0 6 5" fill="none" xmlns="http://www.w3.org/2000/svg">
<mask id="path-1-inside-1" fill="white">
<path d="M5.39384 4.39596C5.39384 4.27237 5.42418 4.10439 5.33491 4.0002C5.24346 3.89361 5.00142 3.85621 4.87003 3.79262C4.52541 3.62623 4.19672 3.43625 3.88788 3.21827C3.10566 2.66652 2.60586 2.01657 2.16913 1.21624C2.04342 0.98586 1.92163 0.754681 1.81469 0.516301C1.76711 0.410511 1.74135 0.250924 1.66736 0.160732C1.5255 -0.0118531 0.993611 0.028144 0.948651 0.256324C0.864841 0.680487 1.20226 1.12145 1.41484 1.47622C2.02879 2.50053 2.72284 3.46964 3.80058 4.12938C4.21374 4.38216 4.64719 4.63594 5.15376 4.63594C5.15376 4.63594 5.37878 4.64734 5.39384 4.39596Z"/>
</mask>
<path d="M5.39384 4.39596C5.39384 4.27237 5.42418 4.10439 5.33491 4.0002C5.24346 3.89361 5.00142 3.85621 4.87003 3.79262C4.52541 3.62623 4.19672 3.43625 3.88788 3.21827C3.10566 2.66652 2.60586 2.01657 2.16913 1.21624C2.04342 0.98586 1.92163 0.754681 1.81469 0.516301C1.76711 0.410511 1.74135 0.250924 1.66736 0.160732C1.5255 -0.0118531 0.993611 0.028144 0.948651 0.256324C0.864841 0.680487 1.20226 1.12145 1.41484 1.47622C2.02879 2.50053 2.72284 3.46964 3.80058 4.12938C4.21374 4.38216 4.64719 4.63594 5.15376 4.63594C5.15376 4.63594 5.37878 4.64734 5.39384 4.39596Z" fill="#102660"/>
<path d="M5.39384 4.39596L6.39205 4.45576L6.39384 4.42589V4.39596H5.39384ZM5.33491 4.0002L6.09432 3.34957L6.09387 3.34906L5.33491 4.0002ZM4.87003 3.79262L5.3057 2.89251L5.30481 2.89208L4.87003 3.79262ZM3.88788 3.21827L4.46454 2.40128L4.46428 2.4011L3.88788 3.21827ZM2.16913 1.21624L3.04694 0.737233V0.737233L2.16913 1.21624ZM1.81469 0.516301L2.72707 0.106974L2.72669 0.106126L1.81469 0.516301ZM1.66736 0.160732L2.4405 -0.473506L2.43987 -0.474273L1.66736 0.160732ZM0.948651 0.256324L1.92968 0.450165L1.92979 0.449646L0.948651 0.256324ZM1.41484 1.47622L0.557049 1.99021L0.557114 1.99032L1.41484 1.47622ZM3.80058 4.12938L3.27849 4.98227L3.27869 4.9824L3.80058 4.12938ZM5.15376 4.63594L5.20435 3.63722L5.17907 3.63594H5.15376V4.63594ZM6.39384 4.39596C6.39384 4.39968 6.39375 4.3985 6.39419 4.38713C6.395 4.36664 6.39497 4.3707 6.39632 4.3383C6.39799 4.2983 6.40082 4.22401 6.39657 4.14016C6.38885 3.98802 6.35293 3.65143 6.09432 3.34958L4.57551 4.65082C4.49041 4.55149 4.4463 4.45036 4.42403 4.37621C4.40306 4.30639 4.39984 4.25531 4.39914 4.24145C4.39846 4.22807 4.39929 4.22546 4.39806 4.25497C4.39796 4.25733 4.39625 4.29561 4.39575 4.30837C4.39488 4.33025 4.39384 4.36135 4.39384 4.39596H6.39384ZM6.09387 3.34906C5.95448 3.18659 5.79788 3.09342 5.7023 3.04389C5.60145 2.99162 5.50588 2.95655 5.44488 2.93541C5.3975 2.91899 5.30901 2.89071 5.29976 2.88764C5.26218 2.87519 5.27554 2.87791 5.3057 2.89251L4.43436 4.69273C4.48602 4.71773 4.53357 4.73692 4.57063 4.75091C4.60815 4.76509 4.64319 4.77702 4.67071 4.78614C4.69684 4.7948 4.72588 4.80408 4.74348 4.80976C4.76428 4.81648 4.77839 4.82113 4.79002 4.82516C4.80145 4.82912 4.80594 4.83093 4.80591 4.83091C4.80566 4.83081 4.80346 4.82992 4.79968 4.8282C4.79591 4.82649 4.78988 4.82365 4.78204 4.81959C4.76738 4.81199 4.74019 4.79692 4.70649 4.77244C4.6729 4.74805 4.62536 4.70892 4.57596 4.65134L6.09387 3.34906ZM5.30481 2.89208C5.00435 2.74702 4.72386 2.58431 4.46454 2.40128L3.31123 4.03526C3.66957 4.28819 4.04646 4.50544 4.43525 4.69315L5.30481 2.89208ZM4.46428 2.4011C3.83978 1.9606 3.43233 1.44349 3.04694 0.737233L1.29132 1.69525C1.77938 2.58965 2.37154 3.37243 3.31149 4.03544L4.46428 2.4011ZM3.04694 0.737233C2.92467 0.513164 2.8178 0.309201 2.72707 0.106974L0.902298 0.925628C1.02546 1.20016 1.16216 1.45856 1.29132 1.69525L3.04694 0.737233ZM2.72669 0.106126C2.73702 0.129081 2.73961 0.139726 2.73208 0.116797C2.72869 0.106464 2.7254 0.0960788 2.71943 0.0773721C2.71418 0.0608796 2.70694 0.0382548 2.69886 0.0141927C2.6833 -0.0321147 2.65825 -0.103151 2.62239 -0.180631C2.58696 -0.257167 2.52998 -0.364427 2.4405 -0.473505L0.894225 0.794969C0.841738 0.730986 0.815731 0.677497 0.807425 0.659556C0.798683 0.640671 0.79692 0.633054 0.802997 0.651142C0.80573 0.659277 0.808901 0.669093 0.813909 0.684804C0.818212 0.698301 0.825048 0.719881 0.831917 0.740796C0.839061 0.762553 0.84834 0.790067 0.859378 0.82003C0.870388 0.849918 0.884708 0.886519 0.902679 0.926477L2.72669 0.106126ZM2.43987 -0.474273C2.20947 -0.754569 1.9096 -0.859614 1.73531 -0.90152C1.53936 -0.948633 1.34143 -0.955182 1.16388 -0.935933C0.991114 -0.917202 0.774932 -0.867184 0.566442 -0.748877C0.362339 -0.633059 0.0552224 -0.382123 -0.0324846 0.0630019L1.92979 0.449646C1.86456 0.780681 1.64079 0.94105 1.55349 0.990586C1.46181 1.04261 1.3959 1.05063 1.37946 1.05242C1.35823 1.05472 1.32268 1.05627 1.26777 1.04306C1.23451 1.03507 1.05433 0.98974 0.894856 0.795736L2.43987 -0.474273ZM-0.0323822 0.0624832C-0.136848 0.591187 0.0350562 1.04805 0.170435 1.32784C0.295893 1.58713 0.498588 1.89265 0.557049 1.99021L2.27264 0.962222C2.24024 0.908166 2.20688 0.85479 2.17725 0.807611C2.14606 0.757926 2.11925 0.715461 2.0922 0.671504C2.03818 0.583724 1.99918 0.515461 1.97077 0.456745C1.90524 0.321324 1.95034 0.345624 1.92968 0.450165L-0.0323822 0.0624832ZM0.557114 1.99032C1.19201 3.04957 1.98797 4.19228 3.27849 4.98227L4.32268 3.2765C3.45772 2.74701 2.86558 1.95149 2.27257 0.962114L0.557114 1.99032ZM3.27869 4.9824C3.66411 5.2182 4.32656 5.63594 5.15376 5.63594V3.63594C4.96783 3.63594 4.76337 3.54612 4.32247 3.27637L3.27869 4.9824ZM5.15376 4.63594C5.10317 5.63466 5.10371 5.63469 5.10426 5.63472C5.10445 5.63473 5.105 5.63475 5.10537 5.63477C5.10611 5.63481 5.10685 5.63484 5.1076 5.63488C5.10911 5.63495 5.11064 5.63501 5.11219 5.63508C5.1153 5.63521 5.11851 5.63533 5.12182 5.63544C5.12844 5.63565 5.13547 5.63582 5.1429 5.63592C5.15773 5.63612 5.17431 5.63605 5.19244 5.63552C5.22836 5.63448 5.27225 5.6316 5.322 5.62493C5.41743 5.61214 5.55719 5.58241 5.70923 5.50769C6.07866 5.32613 6.36225 4.95326 6.39205 4.45576L4.39563 4.33616C4.40107 4.24545 4.43101 4.11313 4.52195 3.97882C4.61197 3.84588 4.72734 3.76177 4.82708 3.71275C4.92098 3.6666 5.00355 3.64973 5.05631 3.64266C5.08473 3.63885 5.11092 3.63704 5.13447 3.63636C5.14642 3.63601 5.15816 3.63594 5.16968 3.6361C5.17546 3.63618 5.18123 3.63631 5.187 3.6365C5.18988 3.63659 5.19277 3.6367 5.19566 3.63682C5.1971 3.63688 5.19855 3.63694 5.2 3.63701C5.20073 3.63704 5.20145 3.63708 5.20218 3.63711C5.20254 3.63713 5.20308 3.63716 5.20327 3.63717C5.20381 3.63719 5.20435 3.63722 5.15376 4.63594Z" fill="#102660" mask="url(#path-1-inside-1)"/>
</svg>
