<svg width="4" height="8" viewBox="0 0 4 8" fill="none" xmlns="http://www.w3.org/2000/svg">
<path d="M1.2616 1.29442C1.26155 1.2944 1.26209 1.2952 1.26339 1.29685C1.2623 1.29526 1.26165 1.29444 1.2616 1.29442ZM1.8278 2.18488C1.78139 2.10029 1.73223 2.02008 1.67957 1.94376C1.74347 2.07271 1.80137 2.20712 1.8488 2.34664L1.8488 2.34665C2.17784 3.3146 2.38556 4.36985 2.35653 5.41327C2.34698 5.75729 2.30229 6.10483 2.2337 6.43914L2.23369 6.43921C2.21984 6.50665 2.19664 6.56866 2.18063 6.60944C2.17714 6.61832 2.17357 6.62724 2.17008 6.63588C2.1859 6.63724 2.20288 6.63862 2.22194 6.64016L2.22414 6.64034C2.25917 6.64317 2.30201 6.64666 2.34539 6.65125L2.34623 6.65134C2.38786 6.65581 2.42526 6.66262 2.45649 6.66946C2.4784 6.63633 2.50817 6.57781 2.53804 6.47674C2.58969 6.30192 2.60837 6.11633 2.62596 5.94153C2.63071 5.89431 2.63538 5.84788 2.6406 5.80266L2.64063 5.80248C2.72486 5.07599 2.59467 4.42584 2.37987 3.67764L2.37982 3.67747C2.22362 3.13251 2.07708 2.63885 1.82786 2.18499L1.8278 2.18488Z" fill="#102660" stroke="#102660"/>
</svg>
