<svg width="26" height="30" viewBox="0 0 26 30" fill="none" xmlns="http://www.w3.org/2000/svg">
<path d="M25.0394 8.90442C24.6257 10.206 24.1595 11.4763 23.6178 12.7396C23.426 13.1866 23.2438 13.6406 23.0641 14.0882C22.9778 14.3033 22.8921 14.5169 22.8061 14.7276L22.8061 14.7277C22.7753 14.8032 22.742 14.8817 22.7075 14.9629C22.5622 15.305 22.3963 15.6958 22.3126 16.1195L22.3126 16.1196C22.0893 17.2524 22.1552 18.3894 22.217 19.4567C22.2289 19.6605 22.2405 19.8617 22.25 20.0599C22.3012 21.13 22.2793 22.2307 22.2503 23.3223C22.2324 23.9871 22.1945 24.6508 22.1445 25.3182L25.0394 8.90442ZM25.0394 8.90442C25.106 8.69133 25.1817 8.4332 25.2429 8.19552C25.3072 7.9458 25.3458 7.75497 25.3529 7.65979L25.3529 7.65975C25.4077 6.92671 25.3092 6.22173 25.0038 5.56916L25.0037 5.56904C24.8725 5.28849 24.725 5.04074 24.5768 4.92781L24.5766 4.92767C24.4988 4.86834 24.375 4.80988 24.1864 4.73729C24.1504 4.72343 24.1106 4.70857 24.0683 4.69281C23.9213 4.63795 23.7449 4.57213 23.5978 4.49918L25.0394 8.90442ZM18.6035 0.676834L18.5835 1.17644C18.5348 1.17449 18.487 1.17246 18.4402 1.17047C18.097 1.15587 17.8017 1.14332 17.5081 1.17965L17.5078 1.17969C17.355 1.19849 17.2023 1.2335 17.0182 1.27569L17.0135 1.27679C16.8361 1.31745 16.6284 1.36491 16.41 1.38883L18.6035 0.676834ZM18.6035 0.676834L18.5835 1.17644C18.8712 1.18794 19.0779 1.19808 19.2406 1.2569C19.5407 1.36585 19.7645 1.58796 20.0751 1.89621C20.1004 1.92129 20.1262 1.94693 20.1527 1.97313M18.6035 0.676834L20.1527 1.97313M13.021 2.35582L13.021 2.35583C12.0659 2.72302 11.1433 3.14348 10.2055 3.5708C9.98117 3.67304 9.75594 3.77568 9.5292 3.87807C8.36274 4.40483 7.16568 4.92055 5.89437 5.30888L5.89436 5.30888C5.69176 5.37076 5.48485 5.42671 5.28703 5.48019C5.24311 5.49207 5.19964 5.50382 5.15677 5.51549C4.91609 5.58101 4.6887 5.64529 4.47106 5.72046L13.021 2.35582ZM13.021 2.35582C14.1691 1.91437 15.249 1.51625 16.4099 1.38884L13.021 2.35582ZM3.76233 6.00435L3.76222 6.00437C3.33905 6.09904 2.89309 6.10883 2.52417 6.11693L2.50758 6.1173C2.47624 6.118 2.4438 6.11856 2.41049 6.11912C2.23813 6.12206 2.04275 6.12538 1.85847 6.15253C1.7613 6.16685 1.68854 6.18521 1.63913 6.20407C1.63951 6.20531 1.63991 6.20658 1.64032 6.20788C1.65983 6.26915 1.70429 6.34164 1.7543 6.39491L1.75434 6.39495C2.06476 6.72569 2.55123 6.90613 3.13264 7.01336L3.13264 7.01336C3.88784 7.15266 4.64983 7.13023 5.45449 7.06626C5.65936 7.04997 5.86934 7.03067 6.08296 7.01104C6.68838 6.9554 7.32293 6.89708 7.95267 6.89708C8.36593 6.89708 8.84781 6.94546 9.27685 7.12043C9.71766 7.30021 10.1299 7.62775 10.311 8.18162L9.83577 8.337L10.311 8.18162C10.5011 8.76317 10.3417 9.38368 10.1941 9.80291L10.1941 9.80302C9.91502 10.5952 9.52642 11.3165 9.10855 12.0137L9.10854 12.0138C8.30639 13.352 7.33839 14.5826 6.39028 15.7859M3.76233 6.00435L1.14558 21.32C0.697815 21.8185 0.222765 22.3474 0.646171 23.0158M3.76233 6.00435C3.93837 5.96492 4.08952 5.8954 4.20012 5.8425M3.76233 6.00435L4.20012 5.8425M6.39028 15.7859L5.99755 15.4764M6.39028 15.7859L5.99755 15.4764M6.39028 15.7859C5.24801 17.2357 4.07717 18.6718 2.87168 20.0811L2.87161 20.0811C2.7544 20.2181 2.63684 20.3561 2.51888 20.4945C2.23792 20.8243 1.95465 21.1568 1.66816 21.4848M5.99755 15.4764C6.9487 14.2693 7.89658 13.0632 8.67968 11.7567C9.09065 11.071 9.45971 10.3828 9.72249 9.63689L5.99755 15.4764ZM1.66816 21.4848L1.29155 21.1559L1.66822 21.4847C1.6682 21.4848 1.66818 21.4848 1.66816 21.4848ZM1.66816 21.4848C1.60727 21.5546 1.54942 21.6192 1.49489 21.6801C1.30308 21.8944 1.15245 22.0627 1.05549 22.2463C1.00117 22.3492 0.98189 22.4279 0.981453 22.4925C0.981049 22.5522 0.996284 22.6341 1.06856 22.7482M1.06856 22.7482C1.06855 22.7482 1.06855 22.7482 1.06854 22.7482L0.646171 23.0158M1.06856 22.7482C1.11616 22.8233 1.18943 22.8998 1.30658 23.0073L0.646171 23.0158M1.06856 22.7482L0.646171 23.0158M2.05409 23.0431L2.05418 23.043C2.23267 22.8836 2.42056 22.7357 2.5946 22.5987L2.62455 22.5752C2.8115 22.4279 2.98283 22.2918 3.14067 22.1472C3.30235 21.999 3.46402 21.851 3.62564 21.7029C5.14891 20.3079 6.66781 18.9169 8.15147 17.4952C8.1972 17.4514 8.24319 17.407 8.28957 17.3623C8.73655 16.931 9.21935 16.4652 9.85068 16.1182C9.86342 16.1112 9.88056 16.1012 9.90116 16.0893C9.9889 16.0385 10.1394 15.9513 10.2808 15.8983C10.4793 15.8238 10.7682 15.7683 11.0721 15.9145L11.0724 15.9146C11.4431 16.0931 11.5736 16.4262 11.5927 16.7059C11.61 16.959 11.5433 17.2019 11.4945 17.3513M2.05409 23.0431L7.43429 25.7962C8.46494 23.7013 9.489 21.5995 10.4904 19.4906L10.4904 19.4905C10.5929 19.2747 10.7007 19.0684 10.8137 18.8523C10.8773 18.7306 10.9426 18.6059 11.0094 18.4745C11.1879 18.1237 11.3654 17.7482 11.4945 17.3513M2.05409 23.0431C1.92743 23.1562 1.84496 23.2262 1.76643 23.2669C1.7066 23.2979 1.68559 23.2933 1.66494 23.2868M2.05409 23.0431L1.66494 23.2868M11.4945 17.3513L11.0191 17.1963L11.4946 17.3509C11.4946 17.351 11.4945 17.3512 11.4945 17.3513ZM6.8858 26.9102L6.88579 26.9102C6.86414 27.002 6.8799 27.1639 6.97635 27.3617C7.07039 27.5547 7.21015 27.716 7.33838 27.8031L6.8858 26.9102ZM6.8858 26.9102C6.91808 26.7732 6.99103 26.6117 7.09823 26.4127M6.8858 26.9102L7.09823 26.4127M8.81783 26.8759L8.81791 26.8758C10.0237 24.6678 11.393 22.5062 12.7678 20.4025C12.8499 20.2769 12.9338 20.1434 13.0206 20.0052C13.3091 19.5463 13.6293 19.0369 14.0164 18.6032L14.0163 18.6033C14.0163 18.6033 14.021 18.5977 14.0322 18.5822C14.0436 18.5665 14.0557 18.5488 14.0728 18.524L14.0768 18.5182L14.0781 18.5163C14.1121 18.4668 14.1644 18.3907 14.2263 18.3189C14.3357 18.1921 14.6149 17.9184 15.0319 18.0188C15.4496 18.1193 15.5779 18.4778 15.6137 18.6759C15.6417 18.8307 15.6361 19.0174 15.6339 19.09C15.6335 19.1021 15.6332 19.111 15.6332 19.1161C15.6332 19.7619 15.5328 20.4233 15.4425 21.0173C15.4378 21.0487 15.433 21.0798 15.4283 21.1108L15.4283 21.1109C15.2788 22.0968 15.1634 23.0899 15.0472 24.0902C15.0293 24.2446 15.0113 24.3991 14.9932 24.5538M8.81783 26.8759L17.3205 20.0696C17.0081 21.5029 16.7704 22.9688 16.5353 24.4186C16.3928 25.2971 16.2513 26.1697 16.0948 27.0255C16.0764 27.1258 16.0597 27.2224 16.0436 27.3158C15.9639 27.7773 15.8983 28.1571 15.714 28.497L15.714 28.497C15.6066 28.6951 15.5154 28.7937 15.4338 28.8296C15.434 28.8296 15.4339 28.8296 15.4338 28.8296C15.432 28.8302 15.4095 28.8379 15.3432 28.8396C15.3092 28.8405 15.2717 28.8399 15.2243 28.8385C15.2173 28.8383 15.2099 28.8381 15.2021 28.8379C15.1623 28.8367 15.114 28.8352 15.0678 28.8352C14.8897 28.8352 14.8048 28.8197 14.7477 28.7908L14.7476 28.7908C14.64 28.7364 14.5616 28.6311 14.5616 28.3041C14.5615 28.1459 14.5811 27.9729 14.6066 27.7841C14.6107 27.754 14.6151 27.7227 14.6195 27.6906C14.6408 27.5382 14.6644 27.3687 14.6722 27.2222L14.6722 27.2221C14.7026 26.653 14.7807 26.1052 14.8621 25.5344C14.9073 25.2172 14.9536 24.8929 14.9932 24.5538M8.81783 26.8759C8.7675 26.9682 8.71848 27.0677 8.67352 27.159L8.66695 27.1723C8.61838 27.2709 8.57287 27.3628 8.5249 27.4507C8.42562 27.6327 8.33821 27.7543 8.25453 27.8258L8.25454 27.8257M8.81783 26.8759L8.25454 27.8257M14.9932 24.5538L14.4966 24.4957M14.9932 24.5538C14.9932 24.5538 14.9932 24.5537 14.9932 24.5537L14.4966 24.4957M14.4966 24.4957C14.5146 24.3417 14.5325 24.1876 14.5504 24.0334C14.6666 23.0337 14.7831 22.0312 14.934 21.0359L14.3714 25.4319C14.4158 25.1196 14.4601 24.8075 14.4966 24.4957ZM18.6283 17.536L18.6287 17.5359C18.9424 17.468 19.2046 17.602 19.3531 17.7028C19.5112 17.81 19.6359 17.9439 19.7101 18.0303L19.7103 18.0304C20.0122 18.3821 20.096 18.7831 20.1267 19.1174C20.1396 19.2574 20.144 19.4002 20.1479 19.5247C20.1486 19.5458 20.1492 19.5664 20.1499 19.5863C20.1548 19.7323 20.1609 19.8537 20.1769 19.9644C20.2858 20.715 20.3487 21.473 20.41 22.2135C20.4207 22.3418 20.4313 22.4695 20.442 22.5966C20.5157 23.4651 20.5986 24.3104 20.7613 25.1392L20.7614 25.1393C20.7832 25.2508 20.7998 25.3555 20.8157 25.456C20.8482 25.6607 20.8778 25.848 20.9438 26.0398C21.0328 26.2985 21.1324 26.3811 21.2467 26.4072C21.3846 26.4387 21.5703 26.4412 21.7323 26.4018C21.9013 26.3607 21.9635 26.2965 21.9795 26.2684L18.6283 17.536ZM18.6283 17.536C18.3484 17.5968 18.1612 17.7799 18.0502 17.9208C17.9362 18.0657 17.8579 18.2232 17.8107 18.3245M18.6283 17.536L17.8107 18.3245M20.1527 1.97313C20.1527 1.9731 20.1527 1.97307 20.1526 1.97304L20.5043 1.61756L20.1527 1.97313ZM20.1527 1.97313C20.563 2.37893 20.9939 2.80182 21.4824 3.18302M20.1527 1.97313L21.4824 3.18302M21.4824 3.18302C22.1371 3.69423 22.8506 4.12897 23.5976 4.49911L21.4824 3.18302ZM4.20012 5.8425C4.22308 5.83152 4.24416 5.82134 4.26375 5.81189M4.20012 5.8425L4.26375 5.81189M4.26375 5.81189C4.35058 5.76998 4.4082 5.74217 4.47105 5.72046L4.26375 5.81189ZM1.66494 23.2868C1.58468 23.2613 1.49852 23.1835 1.30665 23.0074L1.66494 23.2868ZM7.09823 26.4127C7.13036 26.3531 7.16906 26.2842 7.20997 26.2114M7.09823 26.4127L7.20997 26.2114M7.20997 26.2114C7.28657 26.0751 7.3709 25.9251 7.43422 25.7963L7.20997 26.2114ZM8.25454 27.8257C8.25453 27.8257 8.24648 27.8322 8.22566 27.8417M8.25454 27.8257L8.22566 27.8417M8.22566 27.8417C8.20379 27.8518 8.17287 27.8629 8.13208 27.8729M8.22566 27.8417L8.13208 27.8729M8.13208 27.8729C8.04932 27.8933 7.94451 27.9048 7.82976 27.9036M8.13208 27.8729L7.82976 27.9036M7.82976 27.9036C7.57797 27.9009 7.39372 27.8405 7.33855 27.8032L7.82976 27.9036ZM17.8107 18.3245C17.5804 18.8173 17.4704 19.3493 17.3748 19.8115M17.8107 18.3245L17.3748 19.8115M17.3748 19.8115C17.3564 19.9004 17.3386 19.9866 17.3205 20.0695L17.3748 19.8115ZM22.1379 25.4088C22.1401 25.3787 22.1423 25.3485 22.1445 25.3182L22.1379 25.4088ZM22.1379 25.4088C22.1266 25.566 22.1155 25.7205 22.0922 25.8733M22.1379 25.4088L22.0922 25.8733M22.0922 25.8733C22.0641 26.0583 22.0248 26.1887 21.9796 26.2683L22.0922 25.8733ZM1.63132 6.16287C1.6314 6.16291 1.63142 6.16387 1.63117 6.16565C1.63112 6.16371 1.63125 6.16283 1.63132 6.16287ZM1.59209 6.22657C1.59207 6.22656 1.59243 6.22627 1.59324 6.22572L1.59209 6.22657Z" fill="#102660" stroke="#102660"/>
</svg>
