<svg width="2" height="7" viewBox="0 0 2 7" fill="none" xmlns="http://www.w3.org/2000/svg">
<mask id="path-1-inside-1" fill="white">
<path d="M0.616735 6.51269C0.529748 6.41549 0.390813 6.2989 0.378386 6.17127C0.365758 6.04064 0.504585 5.88736 0.549471 5.7701C0.667497 5.46287 0.758045 5.14524 0.815335 4.81576C0.960699 3.9815 0.844256 3.21454 0.578931 2.36159C0.502555 2.11606 0.422936 1.87191 0.328124 1.6297C0.286128 1.52215 0.191377 1.38346 0.178378 1.27466C0.1537 1.06632 0.544755 0.825577 0.736033 0.98203C1.09176 1.27274 1.1719 1.79223 1.27656 2.18004C1.57861 3.29985 1.78716 4.41724 1.51618 5.48767C1.4122 5.89791 1.29507 6.31933 0.949446 6.57857C0.949446 6.57857 0.803939 6.70269 0.616735 6.51269Z"/>
</mask>
<path d="M0.616735 6.51269C0.529748 6.41549 0.390813 6.2989 0.378386 6.17127C0.365758 6.04064 0.504585 5.88736 0.549471 5.7701C0.667497 5.46287 0.758045 5.14524 0.815335 4.81576C0.960699 3.9815 0.844256 3.21454 0.578931 2.36159C0.502555 2.11606 0.422936 1.87191 0.328124 1.6297C0.286128 1.52215 0.191377 1.38346 0.178378 1.27466C0.1537 1.06632 0.544755 0.825577 0.736033 0.98203C1.09176 1.27274 1.1719 1.79223 1.27656 2.18004C1.57861 3.29985 1.78716 4.41724 1.51618 5.48767C1.4122 5.89791 1.29507 6.31933 0.949446 6.57857C0.949446 6.57857 0.803939 6.70269 0.616735 6.51269Z" fill="#102660"/>
<path d="M0.616735 6.51269L-0.150062 7.14805L-0.167111 7.13075L-0.183244 7.11272L0.616735 6.51269ZM0.378386 6.17127L-0.658938 6.24043L-0.658998 6.23981L0.378386 6.17127ZM0.549471 5.7701L-0.433685 5.43914L-0.433304 5.43815L0.549471 5.7701ZM0.815335 4.81576L-0.213178 4.64925L-0.213124 4.64894L0.815335 4.81576ZM0.578931 2.36159L-0.422105 2.60995L-0.422106 2.60995L0.578931 2.36159ZM0.328124 1.6297L-0.651243 1.93983L-0.651525 1.9391L0.328124 1.6297ZM0.178378 1.27466L-0.856862 1.36304L-0.856967 1.36215L0.178378 1.27466ZM0.736033 0.98203L0.0512072 1.69205L0.0508677 1.69177L0.736033 0.98203ZM1.27656 2.18004L2.2872 1.96475L2.28723 1.96486L1.27656 2.18004ZM1.51618 5.48767L2.5308 5.71934L2.53074 5.71958L1.51618 5.48767ZM0.949446 6.57857L0.233835 5.87239L0.25753 5.85218L0.282581 5.83339L0.949446 6.57857ZM-0.183244 7.11272C-0.183217 7.11275 -0.183463 7.11248 -0.184028 7.11186C-0.184593 7.11124 -0.185413 7.11035 -0.186535 7.10915C-0.188852 7.10666 -0.191965 7.10336 -0.196317 7.09879C-0.21063 7.08378 -0.211368 7.08317 -0.232521 7.06107C-0.26092 7.0314 -0.308509 6.98129 -0.357012 6.9224C-0.438358 6.82365 -0.625756 6.5812 -0.658938 6.24043L1.41571 6.10211C1.40465 5.98848 1.36816 5.90423 1.34331 5.85741C1.31909 5.81176 1.29747 5.7859 1.29621 5.78438C1.29487 5.78275 1.2991 5.78798 1.32161 5.8115C1.3269 5.81703 1.33215 5.82249 1.33886 5.82946C1.34514 5.83599 1.35266 5.84381 1.36037 5.8519C1.37547 5.86773 1.39551 5.88897 1.41671 5.91266L-0.183244 7.11272ZM-0.658998 6.23981C-0.678362 6.03949 -0.636596 5.87336 -0.59973 5.76663C-0.562571 5.65904 -0.515559 5.5705 -0.485815 5.51729C-0.469994 5.48898 -0.454788 5.46325 -0.443808 5.44478C-0.430878 5.42302 -0.425127 5.41348 -0.418478 5.40205C-0.402942 5.37533 -0.417429 5.39668 -0.433685 5.43914L1.53263 6.10106C1.51179 6.15548 1.48948 6.20189 1.47159 6.23664C1.45353 6.27172 1.43589 6.30274 1.42253 6.32571C1.41005 6.34718 1.39565 6.37121 1.38838 6.38346C1.37915 6.39899 1.37408 6.4077 1.37054 6.41405C1.36713 6.42014 1.3677 6.41948 1.37026 6.41413C1.37277 6.40887 1.3793 6.39469 1.38669 6.3733C1.39403 6.35203 1.40406 6.31837 1.41099 6.27454C1.41798 6.23035 1.42245 6.17181 1.41577 6.10273L-0.658998 6.23981ZM-0.433304 5.43815C-0.334402 5.18071 -0.259976 4.91839 -0.213178 4.64925L1.84385 4.98227C1.77607 5.3721 1.6694 5.74504 1.53225 6.10205L-0.433304 5.43815ZM-0.213124 4.64894C-0.0999364 3.99934 -0.181883 3.3822 -0.422105 2.60995L1.57997 2.11323C1.87039 3.04688 2.02133 3.96365 1.84379 4.98257L-0.213124 4.64894ZM-0.422106 2.60995C-0.496598 2.37047 -0.568553 2.15107 -0.651243 1.93983L1.30749 1.31958C1.41442 1.59276 1.50171 1.86165 1.57997 2.11323L-0.422106 2.60995ZM-0.651525 1.9391C-0.645732 1.95394 -0.643496 1.95671 -0.655425 1.93297C-0.660876 1.92213 -0.666474 1.91124 -0.675325 1.89396C-0.683305 1.87838 -0.693688 1.85806 -0.704379 1.83647C-0.724929 1.79497 -0.754588 1.73297 -0.781565 1.66181C-0.807717 1.59283 -0.841893 1.48833 -0.856861 1.36304L1.21362 1.18627C1.20515 1.11538 1.18769 1.06902 1.18427 1.06C1.18003 1.04881 1.17912 1.0486 1.18913 1.06882C1.19372 1.07809 1.19907 1.08861 1.20676 1.10361C1.21357 1.11691 1.22356 1.13635 1.2331 1.15533C1.25115 1.19125 1.28098 1.25169 1.30777 1.3203L-0.651525 1.9391ZM-0.856967 1.36215C-0.897756 1.0178 -0.761433 0.743019 -0.639108 0.575921C-0.512203 0.402566 -0.347381 0.26823 -0.178343 0.173196C0.0693992 0.0339149 0.792874 -0.241639 1.4212 0.27229L0.0508677 1.69177C0.260181 1.86297 0.498788 1.89631 0.650758 1.88711C0.789855 1.87869 0.882621 1.83698 0.930787 1.8099C0.981236 1.78153 1.04097 1.73667 1.09551 1.66216C1.14548 1.5939 1.24217 1.42734 1.21372 1.18716L-0.856967 1.36215ZM1.42086 0.272012C1.8019 0.583414 1.98617 0.974443 2.08834 1.25715C2.1825 1.51772 2.25553 1.84739 2.2872 1.96475L0.265921 2.39534C0.240059 2.2995 0.203691 2.14908 0.184744 2.0756C0.159597 1.97806 0.13694 1.89958 0.112555 1.8321C0.0595518 1.68543 0.0258884 1.67136 0.0512073 1.69205L1.42086 0.272012ZM2.28723 1.96486C2.59462 3.10448 2.86135 4.41361 2.5308 5.71934L0.501559 5.256C0.712976 4.42087 0.5626 3.49522 0.265893 2.39523L2.28723 1.96486ZM2.53074 5.71958C2.44113 6.0731 2.27315 6.83108 1.61631 7.32375L0.282581 5.83339C0.285112 5.83149 0.316038 5.8086 0.360622 5.71C0.409389 5.60216 0.448358 5.4659 0.50162 5.25575L2.53074 5.71958ZM0.949446 6.57857C1.66506 7.28475 1.66454 7.28518 1.66403 7.28562C1.66386 7.28577 1.66334 7.28621 1.663 7.2865C1.66231 7.28709 1.66161 7.28768 1.6609 7.28827C1.6595 7.28946 1.65807 7.29066 1.65661 7.29187C1.6537 7.2943 1.6507 7.29678 1.6476 7.2993C1.6414 7.30436 1.6348 7.30962 1.62779 7.31505C1.61382 7.3259 1.59807 7.33757 1.58058 7.34975C1.54588 7.37389 1.50256 7.40121 1.45076 7.42831C1.34928 7.48141 1.19918 7.54199 1.00737 7.56535C0.552056 7.6208 0.138247 7.44067 -0.150062 7.14805L1.38353 5.87733C1.34545 5.83869 1.26345 5.76966 1.12937 5.71906C0.989683 5.66635 0.839771 5.6513 0.699214 5.66841C0.567182 5.6845 0.465161 5.72592 0.39681 5.76168C0.361576 5.78011 0.331089 5.79922 0.30508 5.81732C0.291925 5.82647 0.279491 5.83566 0.267738 5.84478C0.261846 5.84936 0.256085 5.85394 0.250448 5.85854C0.247628 5.86084 0.244835 5.86314 0.242067 5.86545C0.240684 5.8666 0.239306 5.86776 0.237934 5.86892C0.237248 5.8695 0.236564 5.87007 0.23588 5.87065C0.23554 5.87094 0.235027 5.87138 0.234857 5.87152C0.234346 5.87196 0.233835 5.87239 0.949446 6.57857Z" fill="#102660" mask="url(#path-1-inside-1)"/>
</svg>
