<svg width="5" height="6" viewBox="0 0 5 6" fill="none" xmlns="http://www.w3.org/2000/svg">
<path d="M1.29487 2.35436C1.773 3.07581 2.35446 3.77235 3.03655 4.35457L1.29487 2.35436ZM1.29487 2.35436C1.44086 2.6095 1.61166 2.86405 1.79578 3.13538L1.79589 3.13554C2.2116 3.74865 2.60371 4.24452 3.17628 4.66348L3.17644 4.6636C3.21313 4.69047 3.25014 4.71829 3.2876 4.74645C3.42492 4.84966 3.56826 4.9574 3.72361 5.03927C3.80318 5.08119 3.85839 5.1014 3.89457 5.11114C3.90641 5.09233 3.92026 5.072 3.93629 5.05116L3.93678 5.05052C3.94715 5.03708 3.9576 5.02389 3.96767 5.01137C3.93518 4.99597 3.89766 4.97667 3.86057 4.95355L3.86051 4.95351C3.5755 4.77578 3.29451 4.57479 3.03657 4.35459L1.29487 2.35436ZM0.664942 0.97941C0.664974 0.979338 0.665325 0.980618 0.665897 0.983465C0.665197 0.980906 0.66491 0.979482 0.664942 0.97941ZM3.82974 5.23136C3.82937 5.23206 3.82938 5.23198 3.82979 5.23125L3.82974 5.23136Z" fill="#102660" stroke="#102660"/>
</svg>
